<svg width="117" height="20" viewBox="0 0 117 20" fill="none" xmlns="http://www.w3.org/2000/svg">
<g clip-path="url(#clip0_8242_61129)">
<path d="M9.31795 0.854043C9.66169 0.0375838 10.8324 0.0375849 11.1762 0.854045L13.205 5.67293C13.35 6.01713 13.6776 6.25231 14.0537 6.2821L19.3197 6.69918C20.212 6.76984 20.5737 7.86983 19.894 8.4451L15.8818 11.8404C15.5953 12.0829 15.4701 12.4635 15.5576 12.826L16.7834 17.9027C16.9911 18.7628 16.044 19.4427 15.2801 18.9818L10.7716 16.2613C10.4496 16.0669 10.0446 16.0669 9.72255 16.2613L5.21406 18.9818C4.45018 19.4427 3.50303 18.7628 3.7107 17.9027L4.93649 12.826C5.02405 12.4635 4.89889 12.0829 4.61233 11.8404L0.600132 8.4451C-0.0796475 7.86983 0.282138 6.76984 1.17436 6.69918L6.44043 6.2821C6.81657 6.25231 7.14423 6.01713 7.28914 5.67293L9.31795 0.854043Z" fill="white"/>
<path d="M33.3179 0.854043C33.6617 0.0375838 34.8324 0.0375849 35.1762 0.854045L37.205 5.67293C37.35 6.01713 37.6776 6.25231 38.0537 6.2821L43.3197 6.69918C44.212 6.76984 44.5737 7.86983 43.894 8.4451L39.8818 11.8404C39.5953 12.0829 39.4701 12.4635 39.5576 12.826L40.7834 17.9027C40.9911 18.7628 40.044 19.4427 39.2801 18.9818L34.7716 16.2613C34.4496 16.0669 34.0446 16.0669 33.7225 16.2613L29.2141 18.9818C28.4502 19.4427 27.503 18.7628 27.7107 17.9027L28.9365 12.826C29.024 12.4635 28.8989 12.0829 28.6123 11.8404L24.6001 8.4451C23.9204 7.86983 24.2821 6.76984 25.1744 6.69918L30.4404 6.2821C30.8166 6.25231 31.1442 6.01713 31.2891 5.67293L33.3179 0.854043Z" fill="white"/>
<path d="M57.3179 0.854043C57.6617 0.0375838 58.8324 0.0375849 59.1762 0.854045L61.205 5.67293C61.35 6.01713 61.6776 6.25231 62.0537 6.2821L67.3197 6.69918C68.212 6.76984 68.5737 7.86983 67.894 8.4451L63.8818 11.8404C63.5953 12.0829 63.4701 12.4635 63.5576 12.826L64.7834 17.9027C64.9911 18.7628 64.044 19.4427 63.2801 18.9818L58.7716 16.2613C58.4496 16.0669 58.0446 16.0669 57.7225 16.2613L53.2141 18.9818C52.4502 19.4427 51.503 18.7628 51.7107 17.9027L52.9365 12.826C53.024 12.4635 52.8989 12.0829 52.6123 11.8404L48.6001 8.4451C47.9204 7.86983 48.2821 6.76984 49.1744 6.69918L54.4404 6.2821C54.8166 6.25231 55.1442 6.01713 55.2891 5.67293L57.3179 0.854043Z" fill="white"/>
<path d="M81.3179 0.854043C81.6617 0.0375838 82.8324 0.0375849 83.1762 0.854045L85.205 5.67293C85.35 6.01713 85.6776 6.25231 86.0537 6.2821L91.3197 6.69918C92.212 6.76984 92.5737 7.86983 91.894 8.4451L87.8818 11.8404C87.5953 12.0829 87.4701 12.4635 87.5576 12.826L88.7834 17.9027C88.9911 18.7628 88.044 19.4427 87.2801 18.9818L82.7716 16.2613C82.4496 16.0669 82.0446 16.0669 81.7225 16.2613L77.2141 18.9818C76.4502 19.4427 75.503 18.7628 75.7107 17.9027L76.9365 12.826C77.024 12.4635 76.8989 12.0829 76.6123 11.8404L72.6001 8.4451C71.9204 7.86983 72.2821 6.76984 73.1744 6.69918L78.4404 6.2821C78.8166 6.25231 79.1442 6.01713 79.2891 5.67293L81.3179 0.854043Z" fill="white"/>
<path d="M105.318 0.854043C105.662 0.0375838 106.832 0.0375849 107.176 0.854045L109.205 5.67293C109.35 6.01713 109.678 6.25231 110.054 6.2821L115.32 6.69918C116.212 6.76984 116.574 7.86983 115.894 8.4451L111.882 11.8404C111.595 12.0829 111.47 12.4635 111.558 12.826L112.783 17.9027C112.991 18.7628 112.044 19.4427 111.28 18.9818L106.772 16.2613C106.45 16.0669 106.045 16.0669 105.723 16.2613L101.214 18.9818C100.45 19.4427 99.503 18.7628 99.7107 17.9027L100.936 12.826C101.024 12.4635 100.899 12.0829 100.612 11.8404L96.6001 8.4451C95.9204 7.86983 96.2821 6.76984 97.1744 6.69918L102.44 6.2821C102.817 6.25231 103.144 6.01713 103.289 5.67293L105.318 0.854043Z" fill="white"/>
</g>
<defs>
<clipPath id="clip0_8242_61129">
<rect width="116" height="18.8889" fill="white" transform="translate(0.24707 0.241699)"/>
</clipPath>
</defs>
</svg>
