<svg width="117" height="20" viewBox="0 0 117 20" fill="none" xmlns="http://www.w3.org/2000/svg">
<path fill-rule="evenodd" clip-rule="evenodd" d="M31.3062 0.488281L21.4408 19.7741H12.1744L16.3031 11.7812H16.1179C12.7118 16.2028 7.62974 19.1136 0.388672 19.7741V11.8919C0.388672 11.8919 5.02096 11.6182 7.74415 8.7552H0.388672V0.488433H8.65544V7.28773L8.84098 7.28697L12.2191 0.488433H18.471V7.24462L18.6565 7.24432L22.1614 0.488281H31.3062Z" fill="white"/>
<path d="M85.1031 17.6454H87.7655V2.36329H85.1031V17.6454Z" fill="white"/>
<path fill-rule="evenodd" clip-rule="evenodd" d="M70.4255 17.4893C71.004 17.7299 71.5925 17.8502 72.1907 17.8502C73.1788 17.8502 74.0631 17.6096 74.8433 17.1285C75.6234 16.6474 76.2281 15.9843 76.6572 15.139C77.0864 14.2873 77.3009 13.3218 77.3009 12.2425C77.3009 11.1633 77.0798 10.1978 76.6377 9.34608C76.1956 8.49437 75.5812 7.83446 74.7945 7.36634C74.0078 6.89172 73.1138 6.65767 72.1125 6.66416C71.4755 6.66416 70.8643 6.7877 70.2791 7.03476C69.694 7.28182 69.2064 7.63291 68.8163 8.08802C68.7862 8.12267 68.7569 8.15766 68.7285 8.19301V2.3731H66.0564V17.6454H68.709L68.7037 16.2187C68.7722 16.3028 68.8456 16.385 68.9235 16.4654C69.3461 16.901 69.8468 17.2422 70.4255 17.4893ZM73.1561 15.022C72.7205 15.2886 72.2231 15.4219 71.6639 15.4219C71.1113 15.4219 70.6042 15.2853 70.1426 15.0123C69.6809 14.7326 69.3136 14.3524 69.0405 13.8712C68.774 13.3901 68.6407 12.8439 68.6407 12.2328C68.6342 11.6216 68.7642 11.0755 69.0308 10.5944C69.3039 10.1068 69.6712 9.72967 70.1329 9.46311C70.5944 9.19004 71.1049 9.05676 71.6639 9.06326C72.2231 9.05676 72.7205 9.18679 73.1561 9.45336C73.5982 9.71342 73.9362 10.0873 74.1703 10.5749C74.4109 11.056 74.5312 11.6086 74.5312 12.2328C74.5312 12.857 74.4109 13.4096 74.1703 13.8907C73.9362 14.3719 73.5982 14.7489 73.1561 15.022Z" fill="white"/>
<path d="M35.1632 3.28981H38.206L40.9278 13.2301L43.8234 3.28981H46.359L49.4993 13.0306L52.113 3.28981H54.9021L50.7866 17.6454H48.1632L44.9699 8.12935L42.0387 17.6454H39.386L35.1632 3.28981Z" fill="white"/>
<path fill-rule="evenodd" clip-rule="evenodd" d="M59.3958 17.8989C58.3359 17.9054 57.3802 17.6713 56.5285 17.1968C55.6833 16.7156 55.0169 16.0492 54.5292 15.1975C54.0481 14.3458 53.8076 13.3738 53.8076 12.2815C53.8076 11.2217 54.0547 10.2628 54.5488 9.40456C55.0429 8.54634 55.7125 7.87667 56.5578 7.39555C57.403 6.91444 58.3457 6.67388 59.3859 6.67388C60.5562 6.67388 61.5802 6.93394 62.4579 7.45406C63.3422 7.97419 64.0021 8.71213 64.4377 9.66786C64.8798 10.6171 65.0391 11.7061 64.9156 12.9349H56.5619C56.5853 13.4245 56.7074 13.8699 56.9284 14.271C57.1754 14.7131 57.52 15.0577 57.9621 15.3047C58.4043 15.5518 58.8983 15.6753 59.4445 15.6753C59.8606 15.6688 60.2475 15.5973 60.605 15.4608C60.9626 15.3178 61.2649 15.126 61.512 14.8854C61.7656 14.6448 61.9444 14.3718 62.0484 14.0663H64.8376C64.6685 14.8139 64.3305 15.4803 63.8234 16.0654C63.3161 16.6441 62.6791 17.096 61.9118 17.421C61.1447 17.7461 60.306 17.9054 59.3958 17.8989ZM56.9381 10.253C56.7823 10.5247 56.6743 10.8172 56.6142 11.1307H62.1517C62.1115 10.7347 61.9893 10.3739 61.7851 10.0482C61.551 9.66461 61.2324 9.36879 60.8294 9.16074C60.4263 8.94618 59.9711 8.83891 59.464 8.83891C58.9243 8.83891 58.4335 8.96244 57.9913 9.2095C57.5493 9.45656 57.1982 9.8044 56.9381 10.253Z" fill="white"/>
<path d="M79.2614 6.8982C79.2614 6.02699 79.4596 5.25329 79.8563 4.57712C80.2528 3.89446 80.8088 3.36457 81.524 2.98748C82.2456 2.60389 83.0876 2.40558 84.0498 2.39259V4.76242C83.6012 4.76892 83.2176 4.8632 82.8991 5.04524C82.5869 5.22079 82.3464 5.4776 82.1773 5.81568C82.0218 6.12693 81.9378 6.48777 81.9254 6.8982H83.9913V9.15101H81.9238V17.6454H79.2614V9.15101H77.545V6.8982H79.2614Z" fill="white"/>
<path fill-rule="evenodd" clip-rule="evenodd" d="M94.5333 17.8793C93.4475 17.8793 92.4755 17.642 91.6173 17.1675C90.7656 16.6863 90.0959 16.0232 89.6083 15.1779C89.1271 14.3262 88.8866 13.3608 88.8866 12.2814C88.8866 11.1957 89.1271 10.227 89.6083 9.37525C90.0959 8.51703 90.7656 7.85062 91.6173 7.376C92.4755 6.90138 93.4475 6.66407 94.5333 6.66407C95.6255 6.66407 96.6008 6.90138 97.4589 7.376C98.3237 7.85062 98.9967 8.51378 99.4777 9.36549C99.9588 10.2172 100.203 11.1892 100.209 12.2814C100.203 13.3608 99.9588 14.3262 99.4777 15.1779C99.0031 16.0232 98.3334 16.6863 97.4687 17.1675C96.604 17.642 95.6255 17.8793 94.5333 17.8793ZM94.5333 15.4315C95.1054 15.4315 95.6125 15.3015 96.0546 15.0414C96.4968 14.7749 96.838 14.4042 97.0787 13.9296C97.3192 13.4485 97.4394 12.8991 97.4394 12.2814C97.4394 11.6573 97.3192 11.1047 97.0787 10.6236C96.838 10.1424 96.4968 9.77185 96.0546 9.51178C95.6125 9.24522 95.1054 9.11193 94.5333 9.11193C93.9677 9.11193 93.4638 9.24522 93.0216 9.51178C92.586 9.77185 92.2479 10.1424 92.0074 10.6236C91.7668 11.1047 91.6498 11.6573 91.6563 12.2814C91.6563 12.8991 91.7766 13.4485 92.0171 13.9296C92.2642 14.4042 92.6022 14.7749 93.0313 15.0414C93.467 15.3015 93.9677 15.4315 94.5333 15.4315Z" fill="white"/>
<path d="M103.086 6.89818H100.121L103.33 17.6454H105.924L108.034 10.7811L110.312 17.6454H112.868L116.086 6.89818H113.404L111.579 13.5876L109.561 6.89818H106.968L104.96 13.735L103.086 6.89818Z" fill="white"/>
</svg>
