<svg width="49" height="49" viewBox="0 0 49 49" fill="none" xmlns="http://www.w3.org/2000/svg">
<path fill-rule="evenodd" clip-rule="evenodd" d="M41.7071 14.4817L41.4271 13.9817C41.0659 13.3771 40.5565 12.8746 39.9471 12.5217L26.5271 4.7817C25.9195 4.4292 25.2297 4.24294 24.5271 4.2417H23.9471C23.2445 4.24294 22.5547 4.4292 21.9471 4.7817L8.52707 12.5417C7.92101 12.8922 7.41759 13.3956 7.06707 14.0017L6.78707 14.5017C6.43457 15.1094 6.24831 15.7992 6.24707 16.5017V32.0017C6.24831 32.7043 6.43457 33.3941 6.78707 34.0017L7.06707 34.5017C7.42665 35.1007 7.92805 35.6021 8.52707 35.9617L21.9671 43.7017C22.5717 44.0615 23.2635 44.2483 23.9671 44.2417H24.5271C25.2297 44.2405 25.9195 44.0543 26.5271 43.7017L39.9471 35.9417C40.5591 35.5991 41.0645 35.0937 41.4071 34.4817L41.7071 33.9817C42.0553 33.3723 42.2413 32.6837 42.2471 31.9817V16.4817C42.2459 15.7792 42.0597 15.0894 41.7071 14.4817ZM23.9471 8.2417H24.5271L36.2471 15.0017L24.2471 21.9217L12.2471 15.0017L23.9471 8.2417ZM26.2471 39.2417L37.9471 32.4817L38.2471 31.9817V18.4617L26.2471 25.4017V39.2417Z" fill="white"/>
</svg>
